<?xml version="1.0" encoding="UTF-8"?>
<COLLADA xmlns="http://www.collada.org/2005/11/COLLADASchema" version="1.4.1">
    <asset>
        <contributor>
            <author>VCGLab</author>
            <authoring_tool>VCGLib | MeshLab</authoring_tool>
        </contributor>
        <created>周一 12月 29 06:01:44 2025 GMT</created>
        <modified>周一 12月 29 06:01:44 2025 GMT</modified>
        <up_axis>Y_UP</up_axis>
    </asset>
    <library_geometries>
        <geometry id="shape0-lib" name="shape0">
            <mesh>
                <source id="shape0-lib-positions" name="position">
                    <float_array id="shape0-lib-positions-array" count="864">27.75 0.5 30.5 30.5 0.5 30.5 30.5 0.5 26.1 4.9 0.5 27.2 4.9 0.5 26.3121 4.01213 0.5 27.2 8.04264 0.5 22.1669 11.9924 0.5 27.2 13.0757 0.5 27.2 6.73449 0.5 24.4776 26.1 0.5 27.2 27.2 0.5 27.2 27.2 0.5 26.1 17.5 0.5 7 17.5 0.5 3.25 16.7929 0.5 3.25 24.7 0.5 20.3 22.75 0.5 20.3 22.75 0.5 26.1 6.6 0.5 11 10.7 0.5 11 10.7 0.5 8.25 15.5214 0.5 16.1883 15.1312 0.5 15.9072 12.9847 0.5 18.7249 4.9 0.5 14.6 4.9 0.5 15.9072 6.20723 0.5 15.9072 4.9 0.5 13.9072 4.9 0.5 8.25 3.8 0.5 13.0757 3.8 0.5 8.25 4.9 0.5 3.8 3.8 0.5 3.8 11.9924 0.5 8.25 11.9924 0.5 3.8 11 0.5 6.3 13.5 0.5 3.8 15.1312 0.5 8.25 13.5 0.5 3.5 4.20723 0.5 13.9072 3.8 0.5 13.5 3.5 0.5 13.5 0.5 0.5 15.9072 0.5 0.5 13.9072 0.5 0.5 8.25 3.5 0.5 8.25 0.5 0.5 3.25 3.5 0.5 3.5 4.9 0.5 3.25 4.9 0.5 3.5 11.9924 0.5 3.25 6.13345 0.5 19.8335 5.92132 0.5 20.0456 4.9 0.5 25.8879 6.52236 0.5 24.2655 15.1312 0.5 26.1 15.7335 0.5 16.4004 13.1969 0.5 18.9371 4.6315 0.5 13.9072 4.9 0.5 14.1757 6.6315 0.5 15.9072 8.06482 0.5 17.3406 11.9924 0.5 15.9072 10.8932 0.5 14.5121 11.9924 0.5 13.9072 10.6811 0.5 14.3 9.07388 0.5 15.9072 7.85269 0.5 17.1284 16.2979 0.5 25.5737 17.3952 0.5 18.0621 16.0858 0.5 25.7858 16.8243 0.5 26.1 18.6537 0.5 26.1 17.6074 0.5 17.85 18.6537 0.5 15.9072 16.7929 0.5 17.0355 16.7929 0.5 15.9072 15.6646 0.5 15.9072 16.7929 0.5 13.9072 15.1312 0.5 13.9072 15.1312 0.5 15.3738 14.0718 0.5 14.3145 13.8597 0.5 14.5266 15.1312 0.5 15.7981 6.6 0.5 6.3 6.3 0.5 6.3 6.3 0.5 8.25 6.3 0.5 11.3 11 0.5 11.3 11 0.5 8.25 10.7 0.5 6.3 6.6 0.5 8.25 22.35 0.5 20.3 22.35 0.5 24.7 22.05 0.5 24.7 22.05 0.5 20.3 19.7 0.5 20.3 19.7 0.5 20 22.75 0.5 15.9072 22.75 0.5 20 26.1 0.5 15.9072 18.6537 0.5 13.9072 18.6537 0.5 13.5 21.5 0.5 13.5 22.75 0.5 13.9072 21.5 0.5 9.5 22.75 0.5 8.25 18.6537 0.5 9.5 18.6537 0.5 8.25 17.5 0.5 9.5 16.7929 0.5 8.25 17.5 0.5 13.5 26.1 0.5 13.9072 26.1 0.5 13.5 24 0.5 13.5 24 0.5 9.5 26.1 0.5 8.25 26.1 0.5 9.5 27.75 0.5 8.25 27.75 0.5 9.5 30.5 0.5 8.25 28 0.5 9.5 30.5 0.5 13.9072 28 0.5 13.5 27.75 0.5 13.9072 27.75 0.5 13.5 16.7929 0.5 0.5 17.5 0.5 3 18.6537 0.5 0.5 18.6537 0.5 3 22.75 0.5 0.5 21.5 0.5 3 22.75 0.5 3.25 21.5 0.5 3.25 21.5 0.5 7 18.6537 0.5 7 26.1 0.5 3 26.1 0.5 0.5 24 0.5 3 24 0.5 3.25 24 0.5 7 26.1 0.5 7 27.75 0.5 7 28 0.5 7 28 0.5 3.25 30.5 0.5 3.25 28 0.5 3 30.5 0.5 0.5 27.75 0.5 3 27.75 0.5 0.5 27.5 0.5 17.5 27.5 0.5 26.1 27.75 0.5 26.1 27.5 0.5 27.5 22.75 0.5 27.2 26.1 0.5 26.1 27.2 0.5 17.5 27.75 0.5 15.9072 18.6537 0.5 27.2 24.7 0.5 20 17.9243 0.5 27.2 15.1312 0.5 30.5 16.7929 0.5 30.5 3.8 0.5 17.9243 3.8 0.5 26.1 4.68787 0.5 26.1 3.8 0.5 26.9879 3.8 0.5 17.5 3.5 0.5 17.5 3.5 0.5 26.1 0.5 0.5 26.1 3.5 0.5 27.5 0.5 0.5 30.5 4.9 0.5 27.5 4.9 0.5 30.5 11.9924 0.5 27.5 11.9924 0.5 30.5 13.5 0.5 27.5 13.5 0.5 27.2 14.1766 0.5 23.4523 13.9645 0.5 23.6645 11.9924 0.5 21.6924 8.25477 0.5 21.9548 17.5 0.5 27.2 17.5 0.5 27.5 18.6537 0.5 27.5 18.6537 0.5 30.5 22.75 0.5 27.5 22.75 0.5 30.5 26.1 0.5 27.5 26.1 0.5 30.5 30.5 0.5 15.9072 15.1312 0.5 3.25 11.9924 0.5 3.5 15.1312 0.5 0.5 11.9924 0.5 0.5 4.9 0.5 0.5 0.5 0.5 0.5 3.8 3.5 13.0757 7.85269 3.5 17.1284 14.1766 3.5 23.4523 8.06482 3.5 17.3406 4.01213 3.5 27.2 13.0757 3.5 27.2 3.8 3.5 17.9243 3.8 3.5 26.9879 3.8 3.5 13.5 13.9645 3.5 23.6645 13.5 3.5 3.8 13.5 3.5 3.5 3.8 3.5 3.8 3.5 3.5 3.5 3.5 3.5 13.5 10.6811 3.5 14.3 10.8932 3.5 14.5121 5.92132 3.5 20.0456 6.13345 3.5 19.8335 3.8 3.5 17.5 27.2 3.5 27.2 17.9243 3.5 27.2 0.5 3.5 0.5 0 3.5 0 0.5 3.5 30.5 0 3.5 31 30.5 3.5 30.5 31 3.5 31 30.5 3.5 0.5 31 3.5 0 0 0 31 0 0 0 31 0 31 31 0 0 16.2979 3.5 25.5737 16.0858 3.5 25.7858 27.5 3.5 17.5 27.2 3.5 17.5 27.5 3.5 27.5 17.5 3.5 27.5 17.5 3.5 27.2 3.5 3.5 17.5 3.5 3.5 27.5 13.5 3.5 27.5 13.5 3.5 27.2 6.73449 3.5 24.4776 6.52236 3.5 24.2655 8.25477 3.5 21.9548 8.04264 3.5 22.1669 28 3.5 3 28 3.5 7 24 3.5 3 24 3.5 7 21.5 3.5 7 17.5 3.5 7 21.5 3.5 3 17.5 3.5 3 28 3.5 13.5 24 3.5 13.5 28 3.5 9.5 24 3.5 9.5 21.5 3.5 9.5 21.5 3.5 13.5 17.5 3.5 9.5 17.5 3.5 13.5 22.35 3.5 24.7 22.05 3.5 24.7 22.35 3.5 20.3 24.7 3.5 20.3 24.7 3.5 20 19.7 3.5 20 19.7 3.5 20.3 22.05 3.5 20.3 6.3 3.5 6.3 6.6 3.5 6.3 6.3 3.5 11.3 11 3.5 11.3 11 3.5 6.3 10.7 3.5 6.3 10.7 3.5 11 6.6 3.5 11 13.1969 3.5 18.9371 12.9847 3.5 18.7249 15.7335 3.5 16.4004 17.3952 3.5 18.0621 17.6074 3.5 17.85 14.0718 3.5 14.3145 13.8597 3.5 14.5266 15.5214 3.5 16.1883</float_array>
                    <technique_common>
                        <accessor count="288" source="#shape0-lib-positions-array" stride="3">
                            <param name="X" type="float"/>
                            <param name="Y" type="float"/>
                            <param name="Z" type="float"/>
                        </accessor>
                    </technique_common>
                </source>
                <source id="shape0-lib-normals" name="normal">
                    <float_array id="shape0-lib-normals-array" count="1716">0 1 0 0 1 0 0 1 0 0 1 0 0 1 0 0 1 0 0 1 0 0 1 0 0 1 0 0 1 0 0 1 0 0 1 0 0 1 0 0 1 0 0 1 0 0 1 0 0 1 0 0 1 0 0 1 0 0 1 0 0 1 0 0 1 0 0 1 0 0 1 0 0 1 0 0 1 0 0 1 0 0 1 0 0 1 0 0 1 0 0 1 0 0 1 0 0 1 0 0 1 0 0 1 0 0 1 0 0 1 0 0 1 0 0 1 0 0 1 0 0 1 0 0 1 0 0 1 0 0 1 0 0 1 0 0 1 0 0 1 0 0 1 0 0 1 0 0 1 0 0 1 0 0 1 0 0 1 0 0 1 0 0 1 0 0 1 0 0 1 0 0 1 0 0 1 0 0 1 0 0 1 0 0 1 0 0 1 0 0 1 0 0 1 0 0 1 0 0 1 0 0 1 0 0 1 0 0 1 0 0 1 0 0 1 0 0 1 0 0 1 0 0 1 0 0 1 0 0 1 0 0 1 0 0 1 0 0 1 0 0 1 0 0 1 0 0 1 0 0 1 0 0 1 0 0 1 0 0 1 0 0 1 0 0 1 0 0 1 0 0 1 0 0 1 0 0 1 0 0 1 0 0 1 0 0 1 0 0 1 0 0 1 0 0 1 0 0 1 0 0 1 0 0 1 0 0 1 0 0 1 0 0 1 0 0 1 0 0 1 0 0 1 0 0 1 0 0 1 0 0 1 0 0 1 0 0 1 0 0 1 0 0 1 0 0 1 0 0 1 0 0 1 0 0 1 0 0 1 0 0 1 0 0 1 0 0 1 0 0 1 0 0 1 0 0 1 0 0 1 0 0 1 0 0 1 0 0 1 0 0 1 0 0 1 0 0 1 0 0 1 0 0 1 0 0 1 0 0 1 0 0 1 0 0 1 0 0 1 0 0 1 0 0 1 0 0 1 0 0 1 0 0 1 0 0 1 0 0 1 0 0 1 0 0 1 0 0 1 0 0 1 0 0 1 0 0 1 0 0 1 0 0 1 0 0 1 0 0 1 0 0 1 0 0 1 0 0 1 0 0 1 0 0 1 0 0 1 0 0 1 0 0 1 0 0 1 0 0 1 0 0 1 0 0 1 0 0 1 0 0 1 0 0 1 0 0 1 0 0 1 0 0 1 0 0 1 0 0 1 0 0 1 0 0 1 0 0 1 0 0 1 0 0 1 0 0 1 0 0 1 0 0 1 0 0 1 0 0 1 0 0 1 0 0 1 0 0 1 0 0 1 0 0 1 0 0 1 0 0 1 0 0 1 0 0 1 0 0 1 0 0 1 0 0 1 0 0 1 0 0 1 0 0 1 0 0 1 0 0 1 0 0 1 0 0 1 0 0 1 0 0 1 0 0 1 0 0 1 0 0 1 0 0 1 0 0 1 0 0 1 0 0 1 0 0 1 0 0 1 0 0 1 0 0 1 0 0 1 0 0 1 0 0 1 0 0 1 0 0 1 0 0 1 0 0 1 0 0 1 0 0 1 0 0 1 0 0 1 0 0 1 0 0 1 0 0 1 0 0 1 0 0 1 0 0 1 0 0 1 0 0 1 0 0 1 0 0 1 0 0 1 0 0 1 0 0 1 0 0 1 0 0 1 0 0 1 0 0 1 0 0 1 0 0 1 0 0 1 0 0 1 0 0.707107 0 -0.707107 0.707107 0 -0.707106 0.707107 1.66396e-07 -0.707107 0.707107 2.5964e-07 -0.707107 0.707106 -7.8485e-07 -0.707108 0.707107 0 -0.707107 0.707107 0 -0.707107 0 0 -1 0 0 -1 0 0 -1 0 0 -1 1 0 0 1 0 0 1 0 0 0 1 0 0 1 0 0 1 0 0 1 0 0 1 0 0 1 0 0 1 0 0 1 0 0 1 0 0 1 0 0 1 0 -0.707107 0 0.707107 -0.707106 1.92655e-07 0.707107 -0.707107 -4.29884e-07 0.707106 -0.707107 1.32688e-07 0.707107 -0.707107 0 0.707107 -0.707107 0 0.707107 -0.707107 0 0.707107 -0.707107 0 0.707107 0.707107 0 -0.707107 0.707107 0 -0.707107 1 0 0 1 0 0 1 0 0 0 0 -1 0 0 -1 0 0 -1 0 0 -1 0 0 -1 0 1 0 0 1 0 0 1 0 0 1 0 0 1 0 0 1 0 0 1 0 0 1 0 -1 0 0 -1 0 0 0 0 1 0 0 1 1 0 0 1 0 0 0 0 -1 0 0 -1 -1 0 0 -1 0 0 -1 0 0 -1 0 0 -1 0 0 -1 0 0 -1 0 0 0 0 1 0 0 1 0 0 1 0 0 1 0 0 1 0 0 1 0 0 1 0 0 1 0 0 1 0 0 1 1 0 0 1 0 0 1 0 0 1 0 0 1 0 0 1 0 0 1 0 0 0 0 -1 0 0 -1 0 0 -1 0 0 -1 0 0 -1 0 0 -1 0 0 -1 0 0 -1 0 0 -1 0 0 -1 0 -1 0 0 -1 0 -1 0 0 -1 0 0 -1 0 0 0 0 1 0 0 1 0 0 1 0 0 1 0 0 1 0 0 1 1 0 0 1 0 0 0 0 -1 0 0 -1 0 0 -1 0 0 -1 0 1 0 0 1 0 0 1 0 0 1 0 0 1 0 0 1 0 0 1 0 1 0 0 1 0 0 1 0 0 0 0 -1 0 0 -1 -1 0 0 -1 0 0 -1 0 0 -1 0 0 -1 0 0 0 0 1 0 0 1 0 0 1 0 0 1 0 0 1 0 0 -1 0 0 -1 -1 0 0 -1 0 0 -1 0 0 0 0 1 0 0 1 0 0 1 0 0 1 1 0 0 1 0 0 0 1 0 0 1 0 0 1 0 0 1 0 0 1 0 0 1 0 0 1 0 0 1 0 0 1 0 0 1 0 0 1 0 0 1 0 0 1 0 -0.707107 0 0.707107 -0.707107 0 0.707107 0.707107 0 -0.707107 0.707107 0 -0.707107 0.707107 0 -0.707107 -0.707107 0 0.707107 -0.707107 0 0.707107 0.707107 0 -0.707107 0.707107 0 -0.707107 0.707106 0 0.707108 0.707106 0 0.707108 -0.707107 0 -0.707107 -0.707107 0 -0.707107 0.70711 0 0.707104 0.70711 0 0.707104 -0.707107 0 -0.707107 -0.707107 0 -0.707107 -0.707107 0 -0.707107 -0.707107 2.0783e-07 -0.707107 -0.707109 -1.65568e-06 -0.707104 -0.707106 0 -0.707107 0.707107 0 0.707107 0.707107 1.96102e-07 0.707107 0.707106 0 0.707107 0.707106 0 -0.707108 0.707106 0 -0.707108 1 0 0 1 0 0 1 0 0 0 0 -1 0 0 -1 0 0 -1 0 0 -1 -1 0 0 -1 0 0 -1 0 0 0 0 1 0 0 1 0 0 1 0 0 1 0 1 0 0 1 0 0 0 1 0 0 1 0 0 1 1 0 0 1 0 0 1 0 0 0 0 -1 0 0 -1 0 0 -1 -1 0 0 -1 0 0 -1 0 0 0 1 0 0 1 0 0 0 1 0 0 1 0 0 1 0 0 1 1 0 0 1 0 0 0 0 -1 0 0 -1 0 0 -1 0 0 -1 -1 0 0 -1 0 0 0 1 0 0 1 0 1 0 0 1 0 0 0 0 -1 0 0 -1 0 0 -1 -1 0 0 -1 0 0 0 0 1 0 0 1 0 0 1 0 1 0 0 1 0 0 0 1 0 0 1 1 0 0 1 0 0 0 0 1 0 0 1 0 0 1 1 0 0 1 0 0 0 0 -1 0 0 -1 0 0 -1 -1 0 0 -1 0 0 0 0 1 0 0 1 -1 0 0 -1 0 0 0 1 0 0 1 0 0 1 0 0 1 0 0 1 0 0 1 0 0 0 -1 0 0 -1 -1 0 0 -1 0 0 -1 0 0 0 0 1 0 0 1 1 0 0 1 0 0 1 0 0 0 0 -1 0 0 -1 -1 0 0 -1 0 0 -1 0 0 0 0 -1 0 0 -1 1 0 0 1 0 0 1 0 0 0 1 0 0 1 0 0 1 0 0 1 0 0 1 0 0 1 0 -0.707108 0 0.707105 -0.707108 0 0.707105 0.707107 0 0.707107 0.707107 0 0.707107 -0.707107 0 0.707107 -0.707107 0 0.707107 0.707107 0 0.707107 0.707107 0 0.707107 0.707107 0 -0.707107 0.707107 0 -0.707107 0.707107 -4.76837e-08 -0.707107 0.707107 -1.99223e-07 -0.707107 0.707107 4.21416e-07 -0.707106 -0.707108 0 -0.707105 -0.707108 0 -0.707105 -0.707108 0 0.707106 -0.707107 -1.73318e-07 0.707107 -0.707107 0 0.707107 -0.707107 0 -0.707107 -0.707107 0 -0.707107 0 1 0 0 1 0 0 1 0 0 1 0 0 1 0 0 1 0 0.707108 0 -0.707105 0.707108 0 -0.707105 -0.707107 0 -0.707107 -0.707107 -9.93411e-08 -0.707107 -0.707107 0 -0.707107 0.707107 0 0.707107 0.707107 0 0.707107</float_array>
                    <technique_common>
                        <accessor count="572" source="#shape0-lib-normals-array" stride="3">
                            <param name="X" type="float"/>
                            <param name="Y" type="float"/>
                            <param name="Z" type="float"/>
                        </accessor>
                    </technique_common>
                </source>
                <vertices id="shape0-lib-vertices">
                    <input semantic="POSITION" source="#shape0-lib-positions"/>
                </vertices>
                <triangles count="572">
                    <input offset="0" semantic="VERTEX" source="#shape0-lib-vertices"/>
                    <input offset="1" semantic="NORMAL" source="#shape0-lib-normals"/>
                    <p>0 0 1 0 2 0 3 1 4 1 5 1 6 2 7 2 8 2 4 3 3 3 9 3 10 4 11 4 12 4 13 5 14 5 15 5 16 6 17 6 18 6 19 7 20 7 21 7 22 8 23 8 24 8 25 9 26 9 27 9 28 10 29 10 30 10 30 11 29 11 31 11 31 12 29 12 32 12 31 13 32 13 33 13 34 14 35 14 36 14 35 15 34 15 37 15 37 16 34 16 38 16 37 17 38 17 39 17 40 18 41 18 42 18 26 19 25 19 43 19 43 20 25 20 40 20 43 21 40 21 44 21 44 22 40 22 42 22 44 23 42 23 45 23 45 24 42 24 46 24 45 25 46 25 47 25 47 26 46 26 48 26 47 27 48 27 49 27 49 28 48 28 50 28 49 29 50 29 51 29 52 30 53 30 54 30 27 31 55 31 9 31 56 32 57 32 58 32 30 33 59 33 28 33 28 34 59 34 60 34 28 35 60 35 61 35 62 36 63 36 64 36 64 37 63 37 65 37 64 38 65 38 66 38 66 39 65 39 28 39 66 40 28 40 67 40 67 41 28 41 61 41 67 42 61 42 68 42 69 43 70 43 71 43 71 44 70 44 57 44 69 45 72 45 70 45 70 46 72 46 73 46 70 47 73 47 74 47 74 48 73 48 75 48 74 49 75 49 76 49 76 50 75 50 77 50 76 51 77 51 78 51 79 52 80 52 81 52 81 53 80 53 82 53 82 54 80 54 65 54 82 55 65 55 83 55 83 56 65 56 63 56 83 57 63 57 84 57 85 58 35 58 86 58 86 59 35 59 32 59 86 60 32 60 87 60 87 61 32 61 29 61 87 62 29 62 88 62 88 63 29 63 28 63 88 64 28 64 89 64 89 65 28 65 65 65 89 66 65 66 90 66 36 67 35 67 91 67 91 68 35 68 85 68 91 69 85 69 21 69 21 70 85 70 92 70 21 71 92 71 19 71 17 72 93 72 94 72 94 73 95 73 73 73 95 74 96 74 73 74 73 75 96 75 97 75 73 76 97 76 75 76 75 77 97 77 98 77 75 78 98 78 99 78 99 79 98 79 100 79 99 80 100 80 101 80 79 81 102 81 103 81 103 82 102 82 104 82 104 83 102 83 105 83 104 84 105 84 106 84 106 85 105 85 107 85 106 86 107 86 108 86 108 87 107 87 109 87 108 88 109 88 110 88 110 89 109 89 111 89 110 90 111 90 112 90 113 91 114 91 105 91 105 92 114 92 115 92 105 93 115 93 107 93 107 94 115 94 116 94 107 95 116 95 117 95 117 96 116 96 118 96 117 97 118 97 119 97 119 98 118 98 120 98 119 99 120 99 121 99 121 100 120 100 122 100 121 101 122 101 123 101 123 102 122 102 124 102 123 103 124 103 125 103 125 104 124 104 126 104 125 105 126 105 113 105 113 106 126 106 114 106 127 107 128 107 129 107 129 108 128 108 130 108 129 109 130 109 131 109 131 110 130 110 132 110 131 111 132 111 133 111 133 112 132 112 134 112 133 113 134 113 107 113 107 114 134 114 135 114 107 115 135 115 109 115 109 116 135 116 136 116 109 117 136 117 111 117 137 118 138 118 139 118 139 119 138 119 131 119 139 120 131 120 140 120 140 121 131 121 133 121 140 122 133 122 141 122 141 123 133 123 107 123 141 124 107 124 142 124 142 125 107 125 117 125 142 126 117 126 143 126 143 127 117 127 119 127 143 128 119 128 144 128 144 129 119 129 121 129 144 130 121 130 145 130 145 131 121 131 146 131 145 132 146 132 147 132 147 133 146 133 148 133 147 134 148 134 149 134 149 135 148 135 150 135 149 136 150 136 137 136 137 137 150 137 138 137 151 138 152 138 153 138 153 139 152 139 154 139 155 140 10 140 156 140 156 141 10 141 12 141 156 142 12 142 101 142 101 143 12 143 157 143 101 144 157 144 158 144 159 145 155 145 18 145 18 146 155 146 156 146 18 147 156 147 16 147 16 148 156 148 101 148 16 149 101 149 160 149 160 150 101 150 100 150 17 151 94 151 18 151 18 152 94 152 73 152 18 153 73 153 159 153 159 154 73 154 72 154 159 155 72 155 161 155 57 156 56 156 71 156 71 157 56 157 162 157 71 158 162 158 163 158 53 159 164 159 54 159 54 160 164 160 165 160 54 161 165 161 166 161 166 162 165 162 167 162 54 163 55 163 52 163 52 164 55 164 27 164 52 165 27 165 168 165 168 166 27 166 26 166 168 167 26 167 169 167 169 168 26 168 43 168 169 169 43 169 170 169 170 170 43 170 171 170 170 171 171 171 172 171 172 172 171 172 173 172 172 173 173 173 174 173 174 174 173 174 175 174 174 175 175 175 176 175 176 176 175 176 177 176 176 177 177 177 178 177 178 178 177 178 162 178 178 179 162 179 179 179 179 180 162 180 56 180 179 181 56 181 180 181 180 182 56 182 58 182 180 183 58 183 62 183 62 184 58 184 24 184 62 185 24 185 63 185 63 186 24 186 23 186 63 187 23 187 84 187 84 188 23 188 22 188 180 189 181 189 179 189 179 190 181 190 182 190 179 191 182 191 183 191 183 192 182 192 27 192 183 193 27 193 6 193 6 194 27 194 9 194 6 195 9 195 7 195 7 196 9 196 3 196 184 197 71 197 185 197 185 198 71 198 163 198 185 199 163 199 186 199 186 200 163 200 187 200 186 201 187 201 188 201 188 202 187 202 189 202 188 203 189 203 190 203 190 204 189 204 191 204 190 205 191 205 154 205 154 206 191 206 0 206 154 207 0 207 153 207 153 208 0 208 2 208 2 209 192 209 153 209 153 210 192 210 158 210 153 211 158 211 151 211 151 212 158 212 157 212 192 213 123 213 158 213 158 214 123 214 125 214 158 215 125 215 101 215 101 216 125 216 113 216 101 217 113 217 99 217 99 218 113 218 105 218 99 219 105 219 75 219 75 220 105 220 102 220 75 221 102 221 77 221 77 222 102 222 79 222 77 223 79 223 78 223 78 224 79 224 81 224 136 225 13 225 111 225 111 226 13 226 15 226 111 227 15 227 38 227 38 228 15 228 193 228 38 229 193 229 39 229 39 230 193 230 51 230 39 231 51 231 194 231 194 232 51 232 50 232 103 233 112 233 79 233 79 234 112 234 111 234 79 235 111 235 80 235 80 236 111 236 38 236 80 237 38 237 65 237 65 238 38 238 34 238 65 239 34 239 90 239 90 240 34 240 36 240 14 241 128 241 15 241 15 242 128 242 127 242 15 243 127 243 193 243 193 244 127 244 195 244 193 245 195 245 51 245 51 246 195 246 196 246 51 247 196 247 49 247 49 248 196 248 197 248 49 249 197 249 47 249 47 250 197 250 198 250 59 251 30 251 199 251 200 252 68 252 61 252 200 253 61 253 199 253 199 254 61 254 60 254 199 255 60 255 59 255 201 256 180 256 202 256 202 257 180 257 62 257 5 258 203 258 3 258 3 259 203 259 204 259 3 260 204 260 7 260 7 261 204 261 8 261 164 262 205 262 165 262 165 263 205 263 206 263 165 264 206 264 167 264 207 265 208 265 202 265 202 266 208 266 201 266 209 267 210 267 211 267 211 268 210 268 212 268 211 269 212 269 199 269 212 270 213 270 199 270 199 271 213 271 207 271 199 272 207 272 200 272 200 273 207 273 202 273 200 274 202 274 214 274 214 275 202 275 215 275 207 276 41 276 40 276 40 277 25 277 207 277 207 278 25 278 27 278 207 279 27 279 208 279 208 280 27 280 182 280 208 281 182 281 181 281 216 282 205 282 53 282 53 283 205 283 164 283 52 284 168 284 217 284 217 285 168 285 218 285 199 286 30 286 211 286 211 287 30 287 31 287 211 288 31 288 33 288 11 289 10 289 219 289 219 290 10 290 155 290 219 291 155 291 220 291 220 292 155 292 159 292 220 293 159 293 161 293 221 294 222 294 223 294 223 295 222 295 224 295 223 296 224 296 225 296 225 297 224 297 226 297 225 298 226 298 227 298 227 299 226 299 228 299 227 300 228 300 221 300 221 301 228 301 222 301 229 302 224 302 230 302 230 303 224 303 222 303 231 304 226 304 229 304 229 305 226 305 224 305 232 306 228 306 231 306 231 307 228 307 226 307 230 308 222 308 232 308 232 309 222 309 228 309 148 310 146 310 227 310 227 311 146 311 121 311 121 312 123 312 227 312 227 313 123 313 192 313 227 314 192 314 225 314 225 315 192 315 2 315 225 316 2 316 1 316 221 317 198 317 197 317 197 318 196 318 221 318 221 319 196 319 195 319 221 320 195 320 227 320 195 321 127 321 227 321 227 322 127 322 129 322 227 323 129 323 131 323 131 324 138 324 227 324 227 325 138 325 150 325 227 326 150 326 148 326 44 327 221 327 43 327 43 328 221 328 223 328 43 329 223 329 171 329 171 330 223 330 173 330 44 331 45 331 221 331 221 332 45 332 47 332 221 333 47 333 198 333 175 334 173 334 223 334 225 335 1 335 0 335 0 336 191 336 225 336 225 337 191 337 189 337 225 338 189 338 187 338 187 339 163 339 225 339 225 340 163 340 162 340 225 341 162 341 223 341 223 342 162 342 177 342 223 343 177 343 175 343 229 344 230 344 231 344 231 345 230 345 232 345 42 346 213 346 46 346 46 347 213 347 212 347 46 348 212 348 48 348 207 349 213 349 41 349 41 350 213 350 42 350 37 351 209 351 35 351 35 352 209 352 211 352 35 353 211 353 32 353 32 354 211 354 33 354 210 355 209 355 39 355 39 356 209 356 37 356 48 357 212 357 50 357 50 358 212 358 210 358 50 359 210 359 194 359 194 360 210 360 39 360 220 361 233 361 234 361 235 362 236 362 237 362 237 363 236 363 219 363 237 364 219 364 238 364 238 365 219 365 220 365 238 366 220 366 239 366 239 367 220 367 234 367 151 368 235 368 152 368 152 369 235 369 237 369 152 370 237 370 154 370 236 371 235 371 157 371 157 372 235 372 151 372 11 373 219 373 12 373 12 374 219 374 236 374 12 375 236 375 157 375 238 376 239 376 185 376 185 377 239 377 184 377 190 378 154 378 237 378 238 379 185 379 186 379 238 380 186 380 237 380 237 381 186 381 188 381 237 382 188 382 190 382 240 383 218 383 169 383 169 384 218 384 168 384 172 385 241 385 170 385 170 386 241 386 240 386 170 387 240 387 169 387 178 388 242 388 176 388 176 389 242 389 241 389 176 390 241 390 174 390 174 391 241 391 172 391 243 392 242 392 179 392 179 393 242 393 178 393 205 394 216 394 217 394 203 395 244 395 245 395 246 396 247 396 243 396 243 397 247 397 204 397 241 398 206 398 240 398 240 399 206 399 205 399 240 400 205 400 218 400 218 401 205 401 217 401 245 402 206 402 203 402 203 403 206 403 241 403 203 404 241 404 204 404 204 405 241 405 242 405 204 406 242 406 243 406 71 407 184 407 234 407 234 408 184 408 239 408 69 409 233 409 72 409 72 410 233 410 220 410 72 411 220 411 161 411 6 412 8 412 247 412 247 413 8 413 204 413 246 414 243 414 183 414 183 415 243 415 179 415 217 416 216 416 52 416 52 417 216 417 53 417 247 418 246 418 6 418 6 419 246 419 183 419 201 420 208 420 180 420 180 421 208 421 181 421 234 422 233 422 71 422 71 423 233 423 69 423 206 424 245 424 55 424 55 425 54 425 206 425 206 426 54 426 166 426 206 427 166 427 167 427 9 428 244 428 4 428 4 429 244 429 203 429 4 430 203 430 5 430 245 431 244 431 55 431 55 432 244 432 9 432 147 433 248 433 145 433 145 434 248 434 249 434 145 435 249 435 144 435 139 436 250 436 137 436 137 437 250 437 248 437 137 438 248 438 149 438 149 439 248 439 147 439 141 440 251 440 140 440 140 441 251 441 250 441 140 442 250 442 139 442 249 443 251 443 141 443 141 444 142 444 249 444 249 445 142 445 143 445 249 446 143 446 144 446 250 447 251 447 248 447 248 448 251 448 249 448 135 449 252 449 136 449 136 450 252 450 253 450 136 451 253 451 13 451 132 452 254 452 134 452 134 453 254 453 252 453 134 454 252 454 135 454 128 455 255 455 130 455 130 456 255 456 254 456 130 457 254 457 132 457 13 458 253 458 14 458 14 459 253 459 255 459 14 460 255 460 128 460 254 461 255 461 252 461 252 462 255 462 253 462 256 463 257 463 115 463 115 464 114 464 256 464 256 465 114 465 126 465 256 466 126 466 124 466 258 467 256 467 122 467 122 468 256 468 124 468 116 469 259 469 118 469 118 470 259 470 258 470 118 471 258 471 120 471 120 472 258 472 122 472 257 473 259 473 115 473 115 474 259 474 116 474 258 475 259 475 256 475 256 476 259 476 257 476 260 477 261 477 106 477 106 478 261 478 104 478 110 479 262 479 108 479 108 480 262 480 260 480 108 481 260 481 106 481 263 482 262 482 112 482 112 483 262 483 110 483 104 484 261 484 103 484 103 485 261 485 263 485 103 486 263 486 112 486 262 487 263 487 260 487 260 488 263 488 261 488 264 489 265 489 94 489 94 490 265 490 95 490 266 491 264 491 93 491 93 492 264 492 94 492 16 493 267 493 17 493 17 494 267 494 266 494 17 495 266 495 93 495 268 496 267 496 160 496 160 497 267 497 16 497 98 498 269 498 100 498 100 499 269 499 268 499 100 500 268 500 160 500 270 501 269 501 97 501 97 502 269 502 98 502 271 503 270 503 96 503 96 504 270 504 97 504 265 505 271 505 95 505 95 506 271 506 96 506 266 507 267 507 268 507 269 508 270 508 271 508 265 509 264 509 271 509 271 510 264 510 266 510 271 511 266 511 269 511 269 512 266 512 268 512 272 513 273 513 86 513 86 514 273 514 85 514 88 515 274 515 87 515 87 516 274 516 272 516 87 517 272 517 86 517 275 518 274 518 89 518 89 519 274 519 88 519 275 520 89 520 276 520 276 521 89 521 90 521 276 522 90 522 36 522 277 523 276 523 91 523 91 524 276 524 36 524 20 525 278 525 21 525 21 526 278 526 277 526 21 527 277 527 91 527 279 528 278 528 19 528 19 529 278 529 20 529 279 530 19 530 273 530 273 531 19 531 92 531 273 532 92 532 85 532 273 533 272 533 279 533 279 534 272 534 274 534 279 535 274 535 278 535 278 536 274 536 275 536 278 537 275 537 277 537 277 538 275 538 276 538 280 539 281 539 58 539 58 540 281 540 24 540 282 541 280 541 57 541 57 542 280 542 58 542 283 543 282 543 70 543 70 544 282 544 57 544 284 545 283 545 74 545 74 546 283 546 70 546 81 547 82 547 285 547 284 548 74 548 76 548 284 549 76 549 285 549 285 550 76 550 78 550 285 551 78 551 81 551 286 552 285 552 83 552 83 553 285 553 82 553 22 554 287 554 84 554 84 555 287 555 286 555 84 556 286 556 83 556 281 557 287 557 24 557 24 558 287 558 22 558 282 559 283 559 284 559 285 560 286 560 287 560 281 561 280 561 287 561 287 562 280 562 282 562 287 563 282 563 285 563 285 564 282 564 284 564 214 565 215 565 66 565 66 566 215 566 64 566 68 567 200 567 67 567 67 568 200 568 214 568 67 569 214 569 66 569 215 570 202 570 64 570 64 571 202 571 62 571</p>
                </triangles>
            </mesh>
        </geometry>
    </library_geometries>
    <library_visual_scenes>
        <visual_scene id="VisualSceneNode" name="VisualScene">
            <node id="node" name="node">
                <instance_geometry url="#shape0-lib"/>
            </node>
        </visual_scene>
    </library_visual_scenes>
    <scene>
        <instance_visual_scene url="#VisualSceneNode"/>
    </scene>
</COLLADA>
