<?xml version="1.0" encoding="utf-8"?>
<COLLADA xmlns="http://www.collada.org/2005/11/COLLADASchema" version="1.4.1" xmlns:xsi="http://www.w3.org/2001/XMLSchema-instance">
  <asset>
    <contributor>
      <author>Blender User</author>
      <authoring_tool>Blender 3.0.1</authoring_tool>
    </contributor>
    <created>2026-01-28T13:14:33</created>
    <modified>2026-01-28T13:14:33</modified>
    <unit name="meter" meter="1"/>
    <up_axis>Z_UP</up_axis>
  </asset>
  <library_lights>
    <light id="Light-light" name="Light">
      <technique_common>
        <point>
          <color sid="color">1000 1000 1000</color>
          <constant_attenuation>1</constant_attenuation>
          <linear_attenuation>0</linear_attenuation>
          <quadratic_attenuation>0.00111109</quadratic_attenuation>
        </point>
      </technique_common>
      <extra>
        <technique profile="blender">
          <type sid="type" type="int">0</type>
          <flag sid="flag" type="int">0</flag>
          <mode sid="mode" type="int">1</mode>
          <gamma sid="blender_gamma" type="float">1</gamma>
          <red sid="red" type="float">1</red>
          <green sid="green" type="float">1</green>
          <blue sid="blue" type="float">1</blue>
          <shadow_r sid="blender_shadow_r" type="float">0</shadow_r>
          <shadow_g sid="blender_shadow_g" type="float">0</shadow_g>
          <shadow_b sid="blender_shadow_b" type="float">0</shadow_b>
          <energy sid="blender_energy" type="float">1000</energy>
          <dist sid="blender_dist" type="float">29.99998</dist>
          <spotsize sid="spotsize" type="float">75</spotsize>
          <spotblend sid="spotblend" type="float">0.15</spotblend>
          <att1 sid="att1" type="float">0</att1>
          <att2 sid="att2" type="float">1</att2>
          <falloff_type sid="falloff_type" type="int">2</falloff_type>
          <clipsta sid="clipsta" type="float">0.04999995</clipsta>
          <clipend sid="clipend" type="float">30.002</clipend>
          <bias sid="bias" type="float">1</bias>
          <soft sid="soft" type="float">3</soft>
          <bufsize sid="bufsize" type="int">2880</bufsize>
          <samp sid="samp" type="int">3</samp>
          <buffers sid="buffers" type="int">1</buffers>
          <area_shape sid="area_shape" type="int">1</area_shape>
          <area_size sid="area_size" type="float">0.1</area_size>
          <area_sizey sid="area_sizey" type="float">0.1</area_sizey>
          <area_sizez sid="area_sizez" type="float">1</area_sizez>
        </technique>
      </extra>
    </light>
  </library_lights>
  <library_images/>
  <library_geometries>
    <geometry id="shape0-mesh" name="shape0">
      <mesh>
        <source id="shape0-mesh-positions">
          <float_array id="shape0-mesh-positions-array" count="864">27.75 0.5 30.5 30.5 0.5 30.5 30.5 0.5 26.1 4.9 0.5 27.2 4.9 0.5 26.3121 4.01213 0.5 27.2 8.04264 0.5 22.1669 11.9924 0.5 27.2 13.0757 0.5 27.2 6.73449 0.5 24.4776 26.1 0.5 27.2 27.2 0.5 27.2 27.2 0.5 26.1 17.5 0.5 7 17.5 0.5 3.25 16.7929 0.5 3.25 24.7 0.5 20.3 22.75 0.5 20.3 22.75 0.5 26.1 6.6 0.5 11 10.7 0.5 11 10.7 0.5 8.25 15.5214 0.5 16.1883 15.1312 0.5 15.9072 12.9847 0.5 18.7249 4.9 0.5 14.6 4.9 0.5 15.9072 6.20723 0.5 15.9072 4.9 0.5 13.9072 4.9 0.5 8.25 3.8 0.5 13.0757 3.8 0.5 8.25 4.9 0.5 3.8 3.8 0.5 3.8 11.9924 0.5 8.25 11.9924 0.5 3.8 11 0.5 6.3 13.5 0.5 3.8 15.1312 0.5 8.25 13.5 0.5 3.5 4.20723 0.5 13.9072 3.8 0.5 13.5 3.5 0.5 13.5 0.5 0.5 15.9072 0.5 0.5 13.9072 0.5 0.5 8.25 3.5 0.5 8.25 0.5 0.5 3.25 3.5 0.5 3.5 4.9 0.5 3.25 4.9 0.5 3.5 11.9924 0.5 3.25 6.13345 0.5 19.8335 5.92132 0.5 20.0456 4.9 0.5 25.8879 6.52236 0.5 24.2655 15.1312 0.5 26.1 15.7335 0.5 16.4004 13.1969 0.5 18.9371 4.6315 0.5 13.9072 4.9 0.5 14.1757 6.6315 0.5 15.9072 8.06482 0.5 17.3406 11.9924 0.5 15.9072 10.8932 0.5 14.5121 11.9924 0.5 13.9072 10.6811 0.5 14.3 9.073881 0.5 15.9072 7.85269 0.5 17.1284 16.2979 0.5 25.5737 17.3952 0.5 18.0621 16.0858 0.5 25.7858 16.8243 0.5 26.1 18.6537 0.5 26.1 17.6074 0.5 17.85 18.6537 0.5 15.9072 16.7929 0.5 17.0355 16.7929 0.5 15.9072 15.6646 0.5 15.9072 16.7929 0.5 13.9072 15.1312 0.5 13.9072 15.1312 0.5 15.3738 14.0718 0.5 14.3145 13.8597 0.5 14.5266 15.1312 0.5 15.7981 6.6 0.5 6.3 6.3 0.5 6.3 6.3 0.5 8.25 6.3 0.5 11.3 11 0.5 11.3 11 0.5 8.25 10.7 0.5 6.3 6.6 0.5 8.25 22.35 0.5 20.3 22.35 0.5 24.7 22.05 0.5 24.7 22.05 0.5 20.3 19.7 0.5 20.3 19.7 0.5 20 22.75 0.5 15.9072 22.75 0.5 20 26.1 0.5 15.9072 18.6537 0.5 13.9072 18.6537 0.5 13.5 21.5 0.5 13.5 22.75 0.5 13.9072 21.5 0.5 9.5 22.75 0.5 8.25 18.6537 0.5 9.5 18.6537 0.5 8.25 17.5 0.5 9.5 16.7929 0.5 8.25 17.5 0.5 13.5 26.1 0.5 13.9072 26.1 0.5 13.5 24 0.5 13.5 24 0.5 9.5 26.1 0.5 8.25 26.1 0.5 9.5 27.75 0.5 8.25 27.75 0.5 9.5 30.5 0.5 8.25 28 0.5 9.5 30.5 0.5 13.9072 28 0.5 13.5 27.75 0.5 13.9072 27.75 0.5 13.5 16.7929 0.5 0.5 17.5 0.5 3 18.6537 0.5 0.5 18.6537 0.5 3 22.75 0.5 0.5 21.5 0.5 3 22.75 0.5 3.25 21.5 0.5 3.25 21.5 0.5 7 18.6537 0.5 7 26.1 0.5 3 26.1 0.5 0.5 24 0.5 3 24 0.5 3.25 24 0.5 7 26.1 0.5 7 27.75 0.5 7 28 0.5 7 28 0.5 3.25 30.5 0.5 3.25 28 0.5 3 30.5 0.5 0.5 27.75 0.5 3 27.75 0.5 0.5 27.5 0.5 17.5 27.5 0.5 26.1 27.75 0.5 26.1 27.5 0.5 27.5 22.75 0.5 27.2 26.1 0.5 26.1 27.2 0.5 17.5 27.75 0.5 15.9072 18.6537 0.5 27.2 24.7 0.5 20 17.9243 0.5 27.2 15.1312 0.5 30.5 16.7929 0.5 30.5 3.8 0.5 17.9243 3.8 0.5 26.1 4.68787 0.5 26.1 3.8 0.5 26.9879 3.8 0.5 17.5 3.5 0.5 17.5 3.5 0.5 26.1 0.5 0.5 26.1 3.5 0.5 27.5 0.5 0.5 30.5 4.9 0.5 27.5 4.9 0.5 30.5 11.9924 0.5 27.5 11.9924 0.5 30.5 13.5 0.5 27.5 13.5 0.5 27.2 14.1766 0.5 23.4523 13.9645 0.5 23.6645 11.9924 0.5 21.6924 8.25477 0.5 21.9548 17.5 0.5 27.2 17.5 0.5 27.5 18.6537 0.5 27.5 18.6537 0.5 30.5 22.75 0.5 27.5 22.75 0.5 30.5 26.1 0.5 27.5 26.1 0.5 30.5 30.5 0.5 15.9072 15.1312 0.5 3.25 11.9924 0.5 3.5 15.1312 0.5 0.5 11.9924 0.5 0.5 4.9 0.5 0.5 0.5 0.5 0.5 3.8 3.5 13.0757 7.85269 3.5 17.1284 14.1766 3.5 23.4523 8.06482 3.5 17.3406 4.01213 3.5 27.2 13.0757 3.5 27.2 3.8 3.5 17.9243 3.8 3.5 26.9879 3.8 3.5 13.5 13.9645 3.5 23.6645 13.5 3.5 3.8 13.5 3.5 3.5 3.8 3.5 3.8 3.5 3.5 3.5 3.5 3.5 13.5 10.6811 3.5 14.3 10.8932 3.5 14.5121 5.92132 3.5 20.0456 6.13345 3.5 19.8335 3.8 3.5 17.5 27.2 3.5 27.2 17.9243 3.5 27.2 0.5 3.5 0.5 0 3.5 0 0.5 3.5 30.5 0 3.5 31 30.5 3.5 30.5 31 3.5 31 30.5 3.5 0.5 31 3.5 0 0 0 31 0 0 0 31 0 31 31 0 0 16.2979 3.5 25.5737 16.0858 3.5 25.7858 27.5 3.5 17.5 27.2 3.5 17.5 27.5 3.5 27.5 17.5 3.5 27.5 17.5 3.5 27.2 3.5 3.5 17.5 3.5 3.5 27.5 13.5 3.5 27.5 13.5 3.5 27.2 6.73449 3.5 24.4776 6.52236 3.5 24.2655 8.25477 3.5 21.9548 8.04264 3.5 22.1669 28 3.5 3 28 3.5 7 24 3.5 3 24 3.5 7 21.5 3.5 7 17.5 3.5 7 21.5 3.5 3 17.5 3.5 3 28 3.5 13.5 24 3.5 13.5 28 3.5 9.5 24 3.5 9.5 21.5 3.5 9.5 21.5 3.5 13.5 17.5 3.5 9.5 17.5 3.5 13.5 22.35 3.5 24.7 22.05 3.5 24.7 22.35 3.5 20.3 24.7 3.5 20.3 24.7 3.5 20 19.7 3.5 20 19.7 3.5 20.3 22.05 3.5 20.3 6.3 3.5 6.3 6.6 3.5 6.3 6.3 3.5 11.3 11 3.5 11.3 11 3.5 6.3 10.7 3.5 6.3 10.7 3.5 11 6.6 3.5 11 13.1969 3.5 18.9371 12.9847 3.5 18.7249 15.7335 3.5 16.4004 17.3952 3.5 18.0621 17.6074 3.5 17.85 14.0718 3.5 14.3145 13.8597 3.5 14.5266 15.5214 3.5 16.1883</float_array>
          <technique_common>
            <accessor source="#shape0-mesh-positions-array" count="288" stride="3">
              <param name="X" type="float"/>
              <param name="Y" type="float"/>
              <param name="Z" type="float"/>
            </accessor>
          </technique_common>
        </source>
        <source id="shape0-mesh-normals">
          <float_array id="shape0-mesh-normals-array" count="189">0 1 0 0.707102 0 -0.7071117 0.7071023 0 -0.7071113 0 0 -1 1 0 0 0 1 -1.58923e-6 -0.7071084 2.48672e-6 0.7071052 -0.7071073 0 0.7071064 -0.707103 0 0.7071107 0.7071142 0 -0.7070994 0.7071145 0 -0.707099 1 2.63499e-7 0 -1 0 0 0 0 1 -1 -3.59631e-6 0 -1 1.99602e-6 0 0 -1 0 0 1 -5.29866e-7 0 1 -4.12875e-7 0 1 2.06438e-7 -0.7071068 0 0.7071068 -0.7071081 0 0.7071056 0.7070372 0 -0.7071764 0.7070866 1.54799e-5 -0.707127 -0.7071097 0 0.7071039 -0.70711 0 0.7071036 0.707105 0 -0.7071086 0.7070519 0 0.7071617 0.7070562 0 0.7071574 -0.7070612 0 -0.7071524 -0.7070528 0 -0.7071609 0.70728 0 0.7069336 0.7072716 0 0.706942 -0.7071121 0 -0.7071015 -0.7071036 0 -0.70711 -0.7071123 0 -0.7071014 -0.7071169 -6.09626e-6 -0.7070968 -0.7070519 3.5501e-5 -0.7071617 -0.7071183 0 -0.7070954 0.7071084 0 0.7071052 0.7071123 -4.29357e-6 0.7071014 0.7071202 0 0.7070935 0.7070604 0 -0.7071532 -0.7071064 0 0.7071072 -0.707107 0 0.7071067 0.7069394 0 0.7072742 0.7069352 0 0.7072784 0.7070726 0 -0.707141 0.707109 0 -0.7071046 0.7070968 6.10349e-6 -0.7071169 0.7071061 2.31099e-5 -0.7071075 0.7071081 2.35993e-5 -0.7071055 -0.7071063 0 -0.7071074 -0.7071068 5.41092e-7 0.7071069 -0.7071065 0 0.7071071 0 1 6.35794e-7 0.707102 0 -0.7071115 0.7071063 0 -0.7071074 -0.7071093 0 -0.7071043 -0.7071056 3.17894e-6 -0.7071081 -0.7071021 0 -0.7071115 0.7071219 0 0.7070917 0.7071216 0 0.7070921</float_array>
          <technique_common>
            <accessor source="#shape0-mesh-normals-array" count="63" stride="3">
              <param name="X" type="float"/>
              <param name="Y" type="float"/>
              <param name="Z" type="float"/>
            </accessor>
          </technique_common>
        </source>
        <vertices id="shape0-mesh-vertices">
          <input semantic="POSITION" source="#shape0-mesh-positions"/>
        </vertices>
        <lines count="12">
          <input semantic="VERTEX" source="#shape0-mesh-vertices" offset="0"/>
          <p>241 240 21 20 282 280 241 204 161 72 207 200 238 185 240 218 12 11 238 219 199 60 241 174</p>
        </lines>
        <triangles count="490">
          <input semantic="VERTEX" source="#shape0-mesh-vertices" offset="0"/>
          <input semantic="NORMAL" source="#shape0-mesh-normals" offset="1"/>
          <p>0 0 1 0 2 0 3 0 4 0 5 0 6 0 7 0 8 0 4 0 3 0 9 0 13 0 14 0 15 0 16 0 17 0 18 0 28 0 29 0 30 0 30 0 29 0 31 0 31 0 29 0 32 0 31 0 32 0 33 0 34 0 35 0 36 0 35 0 34 0 37 0 37 0 34 0 38 0 37 0 38 0 39 0 26 0 25 0 43 0 43 0 25 0 40 0 43 0 40 0 44 0 44 0 40 0 42 0 44 0 42 0 45 0 45 0 42 0 46 0 45 0 46 0 47 0 47 0 46 0 48 0 47 0 48 0 49 0 49 0 48 0 50 0 49 0 50 0 51 0 52 0 53 0 54 0 27 0 55 0 9 0 28 0 59 0 60 0 28 0 60 0 61 0 62 0 63 0 64 0 64 0 63 0 65 0 64 0 65 0 66 0 66 0 65 0 28 0 66 0 28 0 67 0 67 0 28 0 61 0 67 0 61 0 68 0 69 0 70 0 71 0 71 0 70 0 57 0 69 0 72 0 70 0 70 0 72 0 73 0 70 0 73 0 74 0 74 0 73 0 75 0 74 0 75 0 76 0 76 0 75 0 77 0 76 0 77 0 78 0 79 0 80 0 81 0 81 0 80 0 82 0 82 0 80 0 65 0 82 0 65 0 83 0 83 0 65 0 63 0 83 0 63 0 84 0 85 0 35 0 86 0 86 0 35 0 32 0 86 0 32 0 87 0 87 0 32 0 29 0 87 0 29 0 88 0 88 0 29 0 28 0 88 0 28 0 89 0 89 0 28 0 65 0 89 0 65 0 90 0 36 0 35 0 91 0 91 0 35 0 85 0 91 0 85 0 21 0 21 0 85 0 92 0 21 0 92 0 19 0 17 0 93 0 94 0 94 0 95 0 73 0 95 0 96 0 73 0 73 0 96 0 97 0 73 0 97 0 75 0 75 0 97 0 98 0 75 0 98 0 99 0 99 0 98 0 100 0 99 0 100 0 101 0 79 0 102 0 103 0 103 0 102 0 104 0 104 0 102 0 105 0 104 0 105 0 106 0 106 0 105 0 107 0 106 0 107 0 108 0 108 0 107 0 109 0 108 0 109 0 110 0 110 0 109 0 111 0 110 0 111 0 112 0 113 0 114 0 105 0 105 0 114 0 115 0 105 0 115 0 107 0 107 0 115 0 116 0 107 0 116 0 117 0 117 0 116 0 118 0 117 0 118 0 119 0 119 0 118 0 120 0 119 0 120 0 121 0 121 0 120 0 122 0 121 0 122 0 123 0 123 0 122 0 124 0 123 0 124 0 125 0 125 0 124 0 126 0 125 0 126 0 113 0 113 0 126 0 114 0 127 0 128 0 129 0 129 0 128 0 130 0 129 0 130 0 131 0 131 0 130 0 132 0 131 0 132 0 133 0 133 0 132 0 134 0 133 0 134 0 107 0 107 0 134 0 135 0 107 0 135 0 109 0 109 0 135 0 136 0 109 0 136 0 111 0 137 0 138 0 139 0 139 0 138 0 131 0 139 0 131 0 140 0 140 0 131 0 133 0 140 0 133 0 141 0 141 0 133 0 107 0 141 0 107 0 142 0 142 0 107 0 117 0 142 0 117 0 143 0 143 0 117 0 119 0 143 0 119 0 144 0 144 0 119 0 121 0 144 0 121 0 145 0 145 0 121 0 146 0 145 0 146 0 147 0 147 0 146 0 148 0 147 0 148 0 149 0 149 0 148 0 150 0 149 0 150 0 137 0 137 0 150 0 138 0 151 0 152 0 153 0 153 0 152 0 154 0 155 0 10 0 156 0 156 0 10 0 12 0 156 0 12 0 101 0 101 0 12 0 157 0 101 0 157 0 158 0 159 0 155 0 18 0 18 0 155 0 156 0 18 0 156 0 16 0 16 0 156 0 101 0 16 0 101 0 160 0 160 0 101 0 100 0 17 0 94 0 18 0 18 0 94 0 73 0 18 0 73 0 159 0 159 0 73 0 72 0 57 0 56 0 71 0 71 0 56 0 162 0 71 0 162 0 163 0 53 0 164 0 54 0 54 0 165 0 166 0 166 0 165 0 167 0 54 0 55 0 52 0 52 0 55 0 27 0 52 0 27 0 168 0 168 0 27 0 26 0 168 0 26 0 169 0 169 0 26 0 43 0 170 0 43 0 171 0 172 0 171 0 173 0 172 0 173 0 174 0 174 0 173 0 175 0 174 0 175 0 176 0 176 0 175 0 177 0 176 0 177 0 178 0 178 0 177 0 162 0 178 0 162 0 179 0 179 0 162 0 56 0 179 0 56 0 180 0 180 0 56 0 58 0 180 0 58 0 62 0 62 0 24 0 63 0 63 0 24 0 23 0 63 0 23 0 84 0 84 0 23 0 22 0 180 0 181 0 179 0 179 0 181 0 182 0 179 0 182 0 183 0 183 0 182 0 27 0 183 0 27 0 6 0 6 0 27 0 9 0 6 0 9 0 7 0 7 0 9 0 3 0 184 0 71 0 185 0 185 0 71 0 163 0 185 0 163 0 186 0 186 0 163 0 187 0 186 0 187 0 188 0 188 0 187 0 189 0 190 0 189 0 191 0 190 0 191 0 154 0 154 0 191 0 0 0 154 0 0 0 153 0 153 0 0 0 2 0 2 0 192 0 153 0 153 0 192 0 158 0 153 0 158 0 151 0 151 0 158 0 157 0 192 0 123 0 158 0 158 0 123 0 125 0 158 0 125 0 101 0 101 0 125 0 113 0 101 0 113 0 99 0 99 0 113 0 105 0 99 0 105 0 75 0 75 0 105 0 102 0 75 0 102 0 77 0 77 0 102 0 79 0 77 0 79 0 78 0 78 0 79 0 81 0 136 0 13 0 111 0 111 0 13 0 15 0 111 0 15 0 38 0 38 0 15 0 193 0 38 0 193 0 39 0 39 0 193 0 51 0 39 0 51 0 194 0 194 0 51 0 50 0 103 0 112 0 79 0 79 0 112 0 111 0 79 0 111 0 80 0 80 0 111 0 38 0 80 0 38 0 65 0 65 0 38 0 34 0 65 0 34 0 90 0 90 0 34 0 36 0 14 0 128 0 15 0 15 0 128 0 127 0 15 0 127 0 193 0 193 0 127 0 195 0 193 0 195 0 51 0 51 0 195 0 196 0 51 0 196 0 49 0 49 0 196 0 197 0 49 0 197 0 47 0 47 0 197 0 198 0 201 1 180 1 202 1 202 2 180 2 62 2 7 3 204 3 8 3 165 4 206 4 167 4 209 0 210 0 211 0 211 0 210 0 212 0 211 0 212 0 199 0 212 0 213 0 199 0 199 0 213 0 207 0 200 5 202 5 214 5 214 0 202 0 215 0 208 6 27 6 182 6 208 7 182 7 181 7 216 8 205 8 53 8 52 9 168 9 217 9 217 10 168 10 218 10 211 11 30 11 31 11 211 4 31 4 33 4 221 0 222 0 223 0 223 0 222 0 224 0 223 0 224 0 225 0 225 0 224 0 226 0 225 0 226 0 227 0 227 0 226 0 228 0 227 0 228 0 221 0 221 0 228 0 222 0 229 12 224 12 230 12 230 12 224 12 222 12 231 13 226 13 229 13 229 13 226 13 224 13 232 4 228 4 231 4 231 4 228 4 226 4 230 3 222 3 232 3 232 3 222 3 228 3 148 12 146 12 227 12 227 12 146 12 121 12 121 14 123 14 227 14 227 12 123 12 192 12 227 12 192 12 225 12 225 15 192 15 2 15 225 12 2 12 1 12 221 13 198 13 197 13 197 13 196 13 221 13 221 13 196 13 195 13 221 13 195 13 227 13 195 13 127 13 227 13 227 13 127 13 129 13 227 13 129 13 131 13 131 13 138 13 227 13 227 13 138 13 150 13 227 13 150 13 148 13 44 4 221 4 43 4 43 4 221 4 223 4 43 4 223 4 171 4 171 4 223 4 173 4 44 4 45 4 221 4 221 4 45 4 47 4 221 4 47 4 198 4 175 3 173 3 223 3 225 3 1 3 0 3 0 3 191 3 225 3 225 3 191 3 189 3 225 3 189 3 187 3 187 3 163 3 225 3 225 3 163 3 162 3 225 3 162 3 223 3 223 3 162 3 177 3 223 3 177 3 175 3 229 16 230 16 231 16 231 16 230 16 232 16 42 12 213 12 46 12 46 12 213 12 212 12 46 12 212 12 48 12 41 13 213 13 42 13 37 13 209 13 35 13 35 13 209 13 211 13 35 13 211 13 32 13 32 13 211 13 33 13 210 4 209 4 39 4 39 4 209 4 37 4 48 3 212 3 50 3 50 3 212 3 210 3 50 3 210 3 194 3 194 3 210 3 39 3 220 0 233 0 234 0 235 0 236 0 237 0 237 0 236 0 219 0 151 4 235 4 152 4 152 4 235 4 237 4 152 4 237 4 154 4 236 3 235 3 157 3 157 3 235 3 151 3 12 12 219 12 236 12 12 12 236 12 157 12 185 12 239 12 184 12 169 3 218 3 168 3 243 4 242 4 179 4 179 4 242 4 178 4 205 17 216 17 217 17 203 18 244 18 245 18 246 0 247 0 243 0 243 0 247 0 204 0 218 0 205 0 217 0 245 19 206 19 203 19 203 0 206 0 241 0 204 0 242 0 243 0 71 20 184 20 234 20 234 21 184 21 239 21 69 22 233 22 72 22 72 23 233 23 220 23 6 24 8 24 247 24 247 25 8 25 204 25 246 26 243 26 183 26 183 26 243 26 179 26 217 27 216 27 52 27 52 28 216 28 53 28 247 29 246 29 6 29 6 30 246 30 183 30 201 31 208 31 180 31 180 32 208 32 181 32 234 33 233 33 71 33 71 34 233 34 69 34 206 35 245 35 55 35 55 36 54 36 206 36 206 37 54 37 166 37 206 38 166 38 167 38 9 39 244 39 4 39 4 40 244 40 203 40 4 41 203 41 5 41 245 42 244 42 55 42 55 42 244 42 9 42 147 4 248 4 145 4 145 4 248 4 249 4 145 4 249 4 144 4 139 3 250 3 137 3 137 3 250 3 248 3 137 3 248 3 149 3 149 3 248 3 147 3 141 12 251 12 140 12 140 12 251 12 250 12 140 12 250 12 139 12 249 13 251 13 141 13 141 13 142 13 249 13 249 13 142 13 143 13 249 13 143 13 144 13 250 0 251 0 248 0 248 0 251 0 249 0 135 13 252 13 136 13 136 13 252 13 253 13 136 13 253 13 13 13 132 4 254 4 134 4 134 4 254 4 252 4 134 4 252 4 135 4 128 3 255 3 130 3 130 3 255 3 254 3 130 3 254 3 132 3 13 12 253 12 14 12 14 12 253 12 255 12 14 12 255 12 128 12 254 0 255 0 252 0 252 0 255 0 253 0 256 13 257 13 115 13 115 13 114 13 256 13 256 13 114 13 126 13 256 13 126 13 124 13 258 4 256 4 122 4 122 4 256 4 124 4 116 3 259 3 118 3 118 3 259 3 258 3 118 3 258 3 120 3 120 3 258 3 122 3 257 12 259 12 115 12 115 12 259 12 116 12 258 0 259 0 256 0 256 0 259 0 257 0 260 4 261 4 106 4 106 4 261 4 104 4 110 3 262 3 108 3 108 3 262 3 260 3 108 3 260 3 106 3 263 12 262 12 112 12 112 12 262 12 110 12 104 13 261 13 103 13 103 13 261 13 263 13 103 13 263 13 112 13 262 0 263 0 260 0 260 0 263 0 261 0 264 13 265 13 94 13 94 13 265 13 95 13 266 4 264 4 93 4 93 4 264 4 94 4 16 13 267 13 17 13 17 13 267 13 266 13 17 13 266 13 93 13 268 4 267 4 160 4 160 4 267 4 16 4 98 3 269 3 100 3 100 3 269 3 268 3 100 3 268 3 160 3 270 12 269 12 97 12 97 12 269 12 98 12 271 13 270 13 96 13 96 13 270 13 97 13 265 12 271 12 95 12 95 12 271 12 96 12 266 0 267 0 268 0 269 0 270 0 271 0 265 0 264 0 271 0 271 0 264 0 266 0 271 0 266 0 269 0 269 0 266 0 268 0 272 3 273 3 86 3 86 3 273 3 85 3 88 12 274 12 87 12 87 12 274 12 272 12 87 12 272 12 86 12 276 4 89 4 90 4 276 4 90 4 36 4 277 3 276 3 91 3 91 3 276 3 36 3 21 12 278 12 277 12 21 12 277 12 91 12 279 4 19 4 273 4 273 4 19 4 92 4 273 4 92 4 85 4 273 0 272 0 279 0 278 0 275 0 277 0 277 0 275 0 276 0 283 43 282 43 70 43 70 44 282 44 57 44 284 45 283 45 74 45 74 46 283 46 70 46 81 47 82 47 285 47 284 48 74 48 76 48 284 49 76 49 285 49 285 50 76 50 78 50 285 51 78 51 81 51 286 52 285 52 83 52 83 52 285 52 82 52 84 53 287 53 286 53 84 54 286 54 83 54 282 0 283 0 284 0 285 0 286 0 287 0 287 0 282 0 285 0 285 55 282 55 284 55 214 56 215 56 66 56 66 57 215 57 64 57 68 58 200 58 67 58 67 59 200 59 214 59 67 60 214 60 66 60 215 61 202 61 64 61 64 62 202 62 62 62</p>
        </triangles>
      </mesh>
    </geometry>
  </library_geometries>
  <library_visual_scenes>
    <visual_scene id="Scene" name="Scene">
      <node id="node" name="node" type="NODE">
        <matrix sid="transform">1 0 0 0 0 -4.37114e-8 -1 0 0 1 -4.37114e-8 0 0 0 0 1</matrix>
        <instance_geometry url="#shape0-mesh" name="node"/>
      </node>
      <node id="Light" name="Light" type="NODE">
        <matrix sid="transform">-0.2908646 -0.7711008 0.5663932 4.076245 0.9551712 -0.1998834 0.2183912 1.005454 -0.05518906 0.6045247 0.7946723 5.903862 0 0 0 1</matrix>
        <instance_light url="#Light-light"/>
      </node>
    </visual_scene>
  </library_visual_scenes>
  <scene>
    <instance_visual_scene url="#Scene"/>
  </scene>
</COLLADA>